# xmcd CD database file
#
# Track frame offsets:
#	150
#	15807
#	29852
#	46025
#	58942
#	77575
#	94325
#	106252
#	119452
#	134985
#	142045
#	156547
#
# Disc length: 2295 seconds
#
# Revision: 1
# Processed by: cddbd v1.5.1PL0 Copyright (c) Steve Scherf et al.
# Submitted via: CDex 1.51
#
DISCID=ab08f50c
DTITLE=The Kings of Infinite Space - Queenie
DYEAR=1998
DGENRE=Rock
TTITLE0=Nu-way
TTITLE1=Speedborder
TTITLE2=Slut (that i'm living with)
TTITLE3=Cool
TTITLE4=There's no-one like you
TTITLE5=Shockalockaboom
TTITLE6=Misunderstood
TTITLE7=The greatest little girl in the world
TTITLE8=Mademoiselle
TTITLE9=San Francisco
TTITLE10=Heroin
TTITLE11=Worm
EXTD=YEAR: 1998
EXTT0=
EXTT1=
EXTT2=
EXTT3=
EXTT4=
EXTT5=
EXTT6=
EXTT7=
EXTT8=
EXTT9=
EXTT10=
EXTT11=
PLAYORDER=
